<svg width="46" height="46" viewBox="0 0 46 46" fill="none" xmlns="http://www.w3.org/2000/svg">
<rect width="46" height="46" rx="23" fill="#F4F4F4"/>
<path d="M15.5 12H28.9129V15.7803H19.7635V20.3042C20.1162 20.2423 20.5415 20.1803 21.0394 20.1183C21.5581 20.0563 22.0664 20.0254 22.5643 20.0254C23.7261 20.0254 24.7946 20.139 25.7697 20.3662C26.7448 20.5934 27.5747 20.9756 28.2593 21.5127C28.9647 22.0291 29.5145 22.7211 29.9087 23.5887C30.3029 24.4357 30.5 25.4789 30.5 26.7183C30.5 27.9371 30.2925 29.0009 29.8776 29.9099C29.4834 30.8188 28.9025 31.5728 28.1349 32.1718C27.388 32.7709 26.4751 33.2253 25.3963 33.5352C24.3382 33.8451 23.1452 34 21.8174 34C21.4647 34 21.0187 33.9897 20.4793 33.969C19.9606 33.9484 19.4004 33.9174 18.7988 33.8761C18.2178 33.8347 17.6369 33.7831 17.056 33.7211C16.4751 33.6592 15.9564 33.5765 15.5 33.4732V12ZM22.1286 30.4986C22.668 30.4986 23.166 30.4366 23.6224 30.3127C24.0996 30.1681 24.5145 29.9615 24.8672 29.693C25.2199 29.4038 25.5 29.0423 25.7075 28.6084C25.9149 28.1746 26.0187 27.6479 26.0187 27.0282C26.0187 26.2845 25.9046 25.6854 25.6763 25.231C25.4481 24.7765 25.1369 24.4254 24.7427 24.1775C24.3485 23.9089 23.8921 23.7333 23.3734 23.6507C22.8755 23.5681 22.3361 23.5268 21.7552 23.5268C21.4647 23.5268 21.1017 23.5577 20.666 23.6197C20.2303 23.661 19.9295 23.7023 19.7635 23.7437V30.3437C19.9917 30.4056 20.334 30.4469 20.7905 30.4676C21.2676 30.4883 21.7137 30.4986 22.1286 30.4986Z" fill="#BFBFBF"/>
</svg>
