<svg width="46" height="50" viewBox="0 0 46 50" fill="none" xmlns="http://www.w3.org/2000/svg">
<path d="M44.1218 5.33699V5.15811L43.9626 5.07336C43.7192 4.95097 37.9246 2.01367 23.0307 2.01367C8.1462 2.01367 2.34219 4.95097 2.09879 5.07336L1.93965 5.15811V5.33699C1.93965 5.48762 1.7337 20.673 5.35653 29.1742C8.65171 36.9129 13.2481 41.5919 16.5246 44.1432C20.0819 46.9204 22.8248 47.8524 22.9371 47.8901L23.0307 47.9184L23.1243 47.8901C23.2367 47.8524 25.9795 46.9204 29.5368 44.1432C32.8133 41.5825 37.4097 36.9129 40.7049 29.1742C44.3277 20.673 44.1218 5.48762 44.1218 5.33699Z" fill="url(#paint0_linear_2204_15541)"/>
<path d="M17.2747 24.0163L21.4966 17.0214L14.2229 5.0934C8.11932 5.65826 5.27348 6.69385 4.72116 6.9198V7.0704C4.62755 8.16247 4.21565 15.7222 6.52789 24.0069H17.2747V24.0163ZM8.01635 10.7138H10.6656V13.7829L13.3991 10.7138H16.2356L13.2774 14.1124L16.6381 19.1303H13.8391L11.6953 15.9294L10.6656 17.1062V19.1303H8.01635V10.7138ZM22.9477 14.6867L17.0032 4.88625C18.7725 4.78269 20.7384 4.7168 22.9477 4.7168C25.1569 4.7168 27.1322 4.78269 28.8921 4.88625L22.9477 14.6867Z" fill="url(#paint1_linear_2204_15541)"/>
<path d="M22.9389 2.47613C26.3277 2.47613 29.5106 2.62675 32.4032 2.93743C34.7248 3.1822 36.8779 3.52114 38.7876 3.9542C41.6428 4.59438 43.1313 5.24398 43.5338 5.43227C43.5432 6.90092 43.5619 20.9378 40.1544 28.94C36.8966 36.5845 32.3658 41.1882 29.1361 43.7112C25.8971 46.2437 23.3789 47.204 22.9389 47.3546C22.4989 47.204 19.9807 46.2343 16.7417 43.7112C13.5121 41.1882 8.98118 36.5751 5.72344 28.94C2.31591 20.9378 2.33464 6.91033 2.344 5.43227C2.74654 5.24398 4.23499 4.59438 7.09019 3.9542C8.9999 3.52114 11.1436 3.1822 13.4746 2.93743C16.3673 2.63617 19.5501 2.47613 22.9389 2.47613ZM22.9389 1.96777C8.05441 1.96777 2.25038 4.90507 2.00699 5.02746L1.84785 5.11216V5.29103C1.84785 5.44166 1.6419 20.6271 5.26473 29.1283C8.55992 36.867 13.1563 41.546 16.4328 44.0973C19.9901 46.8745 22.733 47.8065 22.8453 47.8442L22.9389 47.8725L23.0325 47.8442C23.1449 47.8065 25.8877 46.8745 29.445 44.0973C32.7215 41.5366 37.3179 36.867 40.6131 29.1283C44.2359 20.6271 44.03 5.44166 44.03 5.29103V5.11216L43.8708 5.02746C43.6274 4.90507 37.8234 1.96777 22.9389 1.96777Z" fill="#27282A"/>
<path d="M30.3897 29.3356H28.9668L22.9475 19.4316L16.8907 29.3168H8.39062C9.43909 31.7363 10.7684 34.1087 12.4534 36.3023C15.9452 40.6235 19.5868 42.8923 21.5246 43.8903C21.5246 43.8903 21.5433 43.8903 21.5526 43.8997C22.4326 44.3516 22.9475 44.5493 22.9475 44.5493C22.9475 44.5493 23.0505 44.5116 23.2377 44.4363C24.4921 43.862 25.6623 43.2125 26.7482 42.5064C28.3583 41.4331 30.3148 39.8703 32.2901 37.6862C34.5274 35.1255 36.2125 32.2635 37.4856 29.3356H30.3991H30.3897ZM27.3754 39.296L27.4222 39.3619H24.4734L22.9662 37.2437L21.4684 39.3432H18.5196L20.9722 35.1537L18.5196 30.9643L18.5009 30.9361L21.459 30.9549L22.9475 33.0449V33.092L22.9662 33.0731L24.4734 30.9455H27.4222L27.366 31.0302L24.9508 35.1631L27.3754 39.2867V39.296Z" fill="url(#paint2_linear_2204_15541)"/>
<path d="M22.8441 47.8535C22.7317 47.8158 19.9889 46.8838 16.4316 44.1066C13.1551 41.5458 8.5587 36.8763 5.26352 29.1376C1.64068 20.6364 1.84663 5.45095 1.84663 5.30032V5.12144L2.00577 5.03675C2.24917 4.91436 8.05319 1.97706 22.9377 1.97706V0C7.0328 0 0.75136 3.46453 0.489243 3.61516L0.330095 3.70928L0.0305332 3.87873V4.2177L0.0118137 4.39657C0.0118137 4.55662 -0.39072 20.7023 3.50359 29.8531C7.04217 38.1943 12.0318 43.1934 15.5984 45.9235C19.4927 48.8985 22.5258 49.8776 22.6569 49.9152L22.7505 49.9435L22.9283 50V47.8911L22.8347 47.8629L22.8441 47.8535Z" fill="url(#paint3_linear_2204_15541)"/>
<path d="M24.416 35.1644L27.4023 39.3632L27.3742 39.2973L24.4254 35.1644L27.3648 31.0409L27.4023 30.9844L24.416 35.1644Z" fill="#535151"/>
<path d="M18.9498 38.7116L18.9685 38.6833L21.4774 35.1529L18.6128 31.133L18.4724 30.9447H20.691L18.2852 30.8223L20.9438 35.1624L18.3039 39.4741L20.7097 39.3517H18.4911L18.9498 38.7116Z" fill="#ECF0F3"/>
<path d="M27.609 30.8332L25.2032 30.9556H27.4218L26.9631 31.5958L26.935 31.6429L24.4355 35.1545L26.9069 38.6284L26.9537 38.7037L27.4124 39.3439H25.1938L27.5997 39.4663L24.9598 35.1545L27.6184 30.8145L27.609 30.8332ZM25.0066 35.258L24.9504 35.1733L24.9972 35.258H25.0066Z" fill="#95999C"/>
<path d="M8.84961 10.7128L10.8529 10.5527L10.6657 13.7724V10.7128H8.84961Z" fill="#ECF0F3"/>
<path d="M10.6641 19.1292L10.8419 17.1993L11.4879 16.1543L10.6641 17.1052V19.1292Z" fill="#ECF0F3"/>
<path d="M14.9881 12.1445L13.509 14.1215L15.1941 16.9929L13.2656 14.1215L14.9881 12.1445Z" fill="#ECF0F3"/>
<path d="M16.4412 44.125C16.4412 44.125 16.3476 44.0501 16.3008 44.0127C16.3476 44.0501 16.3944 44.0876 16.4412 44.125Z" fill="#8E8E8F"/>
<path d="M16.3015 44.0122C16.3015 44.0122 16.2546 43.9748 16.2266 43.9561C16.2546 43.9748 16.2734 43.9935 16.3015 44.0216V44.0122Z" fill="#8E8E8F"/>
<path d="M28.6034 24.0159H39.3502C41.6624 15.7312 41.2412 8.16202 41.1663 7.07936V6.92876C40.5952 6.70281 37.74 5.66723 31.6084 5.10236L24.3533 17.0304L28.594 24.0253L28.6034 24.0159ZM30.1667 16.2584C30.1667 16.2584 30.1761 16.2302 30.1854 16.2208C30.4195 15.7312 30.4476 15.1946 30.4476 14.931V10.5815H37.8243V19.1204H35.1376V12.728H33.1249V14.9498C32.9938 19.2428 29.6425 19.2805 29.6425 19.2805L28.5285 17.4446C29.2493 17.3505 29.8578 16.8892 30.1667 16.2584ZM42.3645 29.8528C38.8259 38.194 33.8364 43.1931 30.2697 45.9232C26.3754 48.8982 23.3423 49.8773 23.2113 49.9149L23.1176 49.9432L22.9398 49.9997V48.4369L22.8555 48.4087C22.7432 48.371 18.5774 46.5258 16.4337 44.1628C16.3869 44.1157 16.3401 44.0686 16.2932 44.0309C16.3401 44.0686 16.3869 44.1062 16.4337 44.1439C19.991 46.9117 22.7338 47.8344 22.8462 47.872L22.9304 47.9002L23.024 47.8626C23.1364 47.825 25.8792 46.8929 29.4365 44.1157C32.713 41.555 37.3094 36.8854 40.6046 29.1468C44.2274 20.6455 44.0215 5.46008 44.0215 5.30945V5.13057L43.8623 5.04588C43.6189 4.92349 37.8336 1.98619 22.9679 1.98619C17.8659 1.98619 13.7563 2.32511 10.6016 2.80524C10.6016 2.80524 13.7563 1.87317 22.9304 1.46835V0.0185547C38.8447 0.0185547 45.1168 3.48308 45.3789 3.63371L45.538 3.72784L45.8282 3.89729V4.23619L45.8469 4.41507C45.8469 4.57511 46.2495 20.7209 42.3552 29.8717L42.3645 29.8528Z" fill="url(#paint4_linear_2204_15541)"/>
<path d="M40.9691 29.147C44.8073 19.1678 44.0116 5.28149 44.0116 5.13086V5.30974C44.0116 5.46037 44.2175 20.6458 40.5947 29.147C37.2995 36.8857 32.7031 41.5647 29.4266 44.116C27.9101 45.3022 26.5433 46.1495 25.4668 46.7332C26.5714 46.1495 27.9756 45.3022 29.5296 44.116C32.8903 41.5553 37.9454 37.0269 40.9785 29.147H40.9691Z" fill="#ECF0F3"/>
<path d="M34.5273 10.5808L38.0098 10.3926V19.3174L36.2217 19.1291H37.8225V10.5808H34.5273Z" fill="#ECF0F3"/>
<path d="M17.2729 24.0256L20.8115 17.0213L14.2305 5.13086L21.4948 17.0213L17.2729 24.0256Z" fill="#ECF0F3"/>
<path d="M22.9562 14.7131V13.5269L17.0117 4.90332L22.9562 14.7131Z" fill="#95999C"/>
<path d="M22.9576 19.4023V20.5885L16.957 29.2027L22.9576 19.4023Z" fill="#95999C"/>
<path d="M22.957 19.4023V20.5885L28.9015 29.2027L22.957 19.4023Z" fill="#ECF0F3"/>
<path d="M28.6016 24.0253L25.0349 17.0209L31.6066 5.12109L24.3516 17.0209L28.6016 24.0253Z" fill="#95999C"/>
<path d="M22.9473 14.7144V13.5282L28.8917 4.91406L22.9473 14.7144Z" fill="#ECF0F3"/>
<defs>
<linearGradient id="paint0_linear_2204_15541" x1="6.09607" y1="32.7988" x2="42.1079" y2="2.75088" gradientUnits="userSpaceOnUse">
<stop offset="0.18" stop-color="#17181A"/>
<stop offset="0.49" stop-color="#27282A"/>
<stop offset="0.79" stop-color="#2F3033"/>
</linearGradient>
<linearGradient id="paint1_linear_2204_15541" x1="18.5385" y1="1.10166" x2="9.72619" y2="25.1894" gradientUnits="userSpaceOnUse">
<stop stop-color="#ECF0F3"/>
<stop offset="0.77" stop-color="#95999C"/>
<stop offset="1" stop-color="#95999C"/>
</linearGradient>
<linearGradient id="paint2_linear_2204_15541" x1="32.5241" y1="23.3951" x2="14.3348" y2="38.5734" gradientUnits="userSpaceOnUse">
<stop offset="0.02" stop-color="#ECF0F3"/>
<stop offset="0.87" stop-color="#95999C"/>
</linearGradient>
<linearGradient id="paint3_linear_2204_15541" x1="-2.86211" y1="20.4293" x2="27.2073" y2="25.6997" gradientUnits="userSpaceOnUse">
<stop offset="0.24" stop-color="#D3D5D7"/>
<stop offset="1" stop-color="#95999C"/>
</linearGradient>
<linearGradient id="paint4_linear_2204_15541" x1="10.6203" y1="25.0044" x2="45.8657" y2="25.0044" gradientUnits="userSpaceOnUse">
<stop offset="0.45" stop-color="#E0E0E2"/>
<stop offset="0.94" stop-color="#95999C"/>
</linearGradient>
</defs>
</svg>
