<svg width="12" height="12" viewBox="0 0 12 12" fill="none" xmlns="http://www.w3.org/2000/svg">
<g clip-path="url(#clip0_2204_15582)">
<mask id="mask0_2204_15582" style="mask-type:luminance" maskUnits="userSpaceOnUse" x="0" y="0" width="12" height="12">
<path d="M12 0H0V12H12V0Z" fill="currentColor"/>
</mask>
<g mask="url(#mask0_2204_15582)">
<path d="M9.1095 11.5939H2.89088C2.50143 11.5935 2.12804 11.4386 1.85266 11.1632C1.57728 10.8878 1.42239 10.5145 1.422 10.125V1.87501C1.42239 1.48556 1.57728 1.11217 1.85266 0.836792C2.12804 0.561411 2.50143 0.406525 2.89088 0.406128H9.1095C9.49891 0.406624 9.87224 0.561541 10.1476 0.836901C10.423 1.11226 10.5779 1.48559 10.5784 1.87501V10.125C10.5779 10.5144 10.423 10.8877 10.1476 11.1631C9.87224 11.4385 9.49891 11.5934 9.1095 11.5939ZM2.89088 1.15613C2.70028 1.15633 2.51755 1.23213 2.38277 1.36691C2.248 1.50168 2.1722 1.68441 2.172 1.87501V10.125C2.1722 10.3156 2.248 10.4983 2.38277 10.6331C2.51755 10.7679 2.70028 10.8437 2.89088 10.8439H9.1095C9.30009 10.8437 9.48283 10.7679 9.6176 10.6331C9.75237 10.4983 9.82818 10.3156 9.82838 10.125V1.87501C9.82818 1.68441 9.75237 1.50168 9.6176 1.36691C9.48283 1.23213 9.30009 1.15633 9.1095 1.15613H2.89088Z" fill="currentColor"/>
<path d="M3.66497 2.40002H4.25448L5.1151 4.83303H4.57473L4.4101 4.33802H3.48722L3.32785 4.83303H2.80286L3.66497 2.40002ZM3.62973 3.91953H4.27473L3.95185 2.94115L3.62973 3.91953Z" fill="currentColor"/>
<path d="M8.80481 6.64722H3.17981C3.08035 6.64722 2.98496 6.60771 2.91464 6.53738C2.84431 6.46706 2.80481 6.37167 2.80481 6.27222C2.80481 6.17276 2.84431 6.07738 2.91464 6.00705C2.98496 5.93673 3.08035 5.89722 3.17981 5.89722H8.80481C8.90427 5.89722 8.99964 5.93673 9.06997 6.00705C9.1403 6.07738 9.17981 6.17276 9.17981 6.27222C9.17981 6.37167 9.1403 6.46706 9.06997 6.53738C8.99964 6.60771 8.90427 6.64722 8.80481 6.64722Z" fill="currentColor"/>
<path d="M8.80481 8.13147H3.17981C3.08035 8.13147 2.98496 8.09196 2.91464 8.02164C2.84431 7.95131 2.80481 7.85593 2.80481 7.75647C2.80481 7.65701 2.84431 7.56163 2.91464 7.4913C2.98496 7.42098 3.08035 7.38147 3.17981 7.38147H8.80481C8.90427 7.38147 8.99964 7.42098 9.06997 7.4913C9.1403 7.56163 9.17981 7.65701 9.17981 7.75647C9.17981 7.85593 9.1403 7.95131 9.06997 8.02164C8.99964 8.09196 8.90427 8.13147 8.80481 8.13147Z" fill="currentColor"/>
<path d="M8.82056 9.59998H3.19556C3.0961 9.59998 3.00072 9.56047 2.9304 9.49014C2.86007 9.41981 2.82056 9.32443 2.82056 9.22498C2.82056 9.12552 2.86007 9.03014 2.9304 8.95981C3.00072 8.88948 3.0961 8.84998 3.19556 8.84998H8.82056C8.92001 8.84998 9.0154 8.88948 9.08573 8.95981C9.15605 9.03014 9.19556 9.12552 9.19556 9.22498C9.19556 9.32443 9.15605 9.41981 9.08573 9.49014C9.0154 9.56047 8.92001 9.59998 8.82056 9.59998Z" fill="currentColor"/>
</g>
</g>
<defs>
<clipPath id="clip0_2204_15582">
<rect width="12" height="12" fill="white"/>
</clipPath>
</defs>
</svg>
