<svg width="14" height="14" viewBox="0 0 14 14" fill="currentColor" xmlns="http://www.w3.org/2000/svg">
<path d="M6.99997 7.29843e-05C5.6155 7.29843e-05 4.26213 0.410614 3.111 1.17978C1.95986 1.94895 1.06265 3.04219 0.532844 4.32127C0.00303302 5.60034 -0.13559 7.0078 0.134505 8.36566C0.404601 9.72352 1.07128 10.9708 2.05025 11.9498C3.02921 12.9287 4.27648 13.5954 5.63434 13.8655C6.9922 14.1356 8.39966 13.997 9.67874 13.4672C10.9578 12.9373 12.0511 12.0401 12.8202 10.889C13.5894 9.73787 13.9999 8.3845 13.9999 7.00004C14.0041 6.07961 13.826 5.16747 13.4757 4.31629C13.1254 3.46511 12.6099 2.69177 11.9591 2.04092C11.3082 1.39008 10.5349 0.874622 9.68371 0.524333C8.83253 0.174044 7.92039 -0.00413956 6.99997 7.29843e-05ZM7.63633 10.1818C7.63633 10.3506 7.56928 10.5125 7.44994 10.6318C7.3306 10.7512 7.16874 10.8182 6.99997 10.8182C6.83119 10.8182 6.66933 10.7512 6.54999 10.6318C6.43065 10.5125 6.36361 10.3506 6.36361 10.1818V6.36368C6.36361 6.1949 6.43065 6.03304 6.54999 5.9137C6.66933 5.79436 6.83119 5.72731 6.99997 5.72731C7.16874 5.72731 7.3306 5.79436 7.44994 5.9137C7.56928 6.03304 7.63633 6.1949 7.63633 6.36368V10.1818ZM6.99997 4.45459C6.87411 4.45459 6.75107 4.41727 6.64642 4.34735C6.54177 4.27742 6.46021 4.17804 6.41205 4.06176C6.36388 3.94548 6.35128 3.81753 6.37583 3.69409C6.40039 3.57064 6.461 3.45726 6.54999 3.36826C6.63899 3.27926 6.75238 3.21866 6.87582 3.1941C6.99926 3.16955 7.12721 3.18215 7.24349 3.23031C7.35977 3.27848 7.45916 3.36004 7.52908 3.46469C7.599 3.56934 7.63633 3.69237 7.63633 3.81823C7.63633 3.98701 7.56928 4.14887 7.44994 4.26821C7.3306 4.38755 7.16874 4.45459 6.99997 4.45459Z" fill="currentColor" fill-opacity="0.6"/>
</svg>
