<svg width="88" height="38" viewBox="0 0 88 38" fill="none" xmlns="http://www.w3.org/2000/svg">
<path d="M1.62 12H0.24V11.28L2.28 7.8L0.48 4.32V3.6H1.86L3.42 6.9H3.48L5.04 3.6H6.42V4.32L4.62 7.74L6.66 11.28V12H5.28L3.48 8.58H3.42L1.62 12ZM9.36516 12.12C8.82916 12.12 8.39316 11.956 8.05716 11.628C7.72916 11.292 7.56516 10.856 7.56516 10.32V5.28C7.56516 4.736 7.72916 4.3 8.05716 3.972C8.39316 3.644 8.82916 3.48 9.36516 3.48H12.0052C12.5492 3.48 12.9852 3.644 13.3132 3.972C13.6412 4.3 13.8052 4.736 13.8052 5.28V10.32C13.8052 10.856 13.6412 11.292 13.3132 11.628C12.9852 11.956 12.5492 12.12 12.0052 12.12H9.36516ZM11.5252 10.8C11.7972 10.8 12.0052 10.728 12.1492 10.584C12.2932 10.44 12.3652 10.232 12.3652 9.96V5.64C12.3652 5.368 12.2932 5.16 12.1492 5.016C12.0052 4.872 11.7972 4.8 11.5252 4.8H9.84516C9.57316 4.8 9.36516 4.872 9.22116 5.016C9.07716 5.16 9.00516 5.368 9.00516 5.64V9.96C9.00516 10.232 9.07716 10.44 9.22116 10.584C9.36516 10.728 9.57316 10.8 9.84516 10.8H11.5252ZM16.9898 12H15.5498V3.6H16.9898V7.08H18.5498L20.4098 3.6H21.6698V4.32L19.8098 7.62L21.7898 11.28V12H20.4698L18.5498 8.4H16.9898V12ZM24.4898 12H23.0498V3.6H24.4898V7.08H26.0498L27.9098 3.6H29.1698V4.32L27.3098 7.62L29.2898 11.28V12H27.9698L26.0498 8.4H24.4898V12ZM35.8298 12H30.5498V3.6H35.8298V4.5L35.4098 4.92H31.9898V7.08H34.6898V8.4H31.9898V10.68H35.8298V12ZM38.6461 12H37.2061V3.6H38.6461V8.1L38.5021 9.54H38.5621L42.0061 3.6H43.4461V12H42.0061V7.5L42.1501 6.06H42.0901L38.6461 12ZM39.4501 2.76C39.1301 2.76 38.8701 2.66 38.6701 2.46C38.4701 2.26 38.3701 2 38.3701 1.68V0.839999H39.5701V1.32C39.5701 1.472 39.6021 1.58 39.6661 1.644C39.7301 1.708 39.8381 1.74 39.9901 1.74H40.6501C40.8021 1.74 40.9101 1.708 40.9741 1.644C41.0381 1.58 41.0701 1.472 41.0701 1.32V0.839999H42.2701V1.68C42.2701 2 42.1661 2.26 41.9581 2.46C41.7581 2.66 41.5021 2.76 41.1901 2.76H39.4501ZM46.8023 12H45.3623V3.6H46.8023V7.08H50.0423V3.6H51.4823V12H50.0423V8.4H46.8023V12ZM55.2014 3.6H57.0014L59.5214 11.34V12H58.1414L57.6254 10.2H54.5774L54.0614 12H52.6814V11.34L55.2014 3.6ZM56.0534 5.1L54.9614 8.88H57.2414L56.1494 5.1H56.0534ZM60.3056 12V11.28L61.8656 8.7C61.5296 8.66 61.2256 8.5 60.9536 8.22C60.6816 7.94 60.5456 7.56 60.5456 7.08V5.4C60.5456 4.856 60.7096 4.42 61.0376 4.092C61.3736 3.764 61.8096 3.6 62.3456 3.6H66.4256V12H64.9856V8.88H63.3056L61.6856 12H60.3056ZM64.9856 7.56V4.92H62.8256C62.5536 4.92 62.3456 4.992 62.2016 5.136C62.0576 5.28 61.9856 5.488 61.9856 5.76V6.72C61.9856 6.992 62.0576 7.2 62.2016 7.344C62.3456 7.488 62.5536 7.56 62.8256 7.56H64.9856ZM2.4 25H0.96V16.6H2.4V21.1L2.256 22.54H2.316L5.76 16.6H7.2V25H5.76V20.5L5.904 19.06H5.844L2.4 25ZM10.7363 25C10.2003 25 9.76425 24.836 9.42825 24.508C9.10025 24.172 8.93625 23.736 8.93625 23.2V18.4C8.93625 17.856 9.10025 17.42 9.42825 17.092C9.76425 16.764 10.2003 16.6 10.7363 16.6H14.5163V17.512L14.0963 17.92H11.2163C10.9443 17.92 10.7363 17.992 10.5923 18.136C10.4483 18.28 10.3763 18.488 10.3763 18.76V22.84C10.3763 23.112 10.4483 23.32 10.5923 23.464C10.7363 23.608 10.9443 23.68 11.2163 23.68H14.5163V25H10.7363ZM18.9014 25H17.4614V17.92H15.0614V16.6H21.3014V17.5L20.8814 17.92H18.9014V25ZM23.8847 25.12C23.3487 25.12 22.9127 24.956 22.5767 24.628C22.2487 24.292 22.0847 23.856 22.0847 23.32V18.28C22.0847 17.736 22.2487 17.3 22.5767 16.972C22.9127 16.644 23.3487 16.48 23.8847 16.48H26.5247C27.0687 16.48 27.5047 16.644 27.8327 16.972C28.1607 17.3 28.3247 17.736 28.3247 18.28V23.32C28.3247 23.856 28.1607 24.292 27.8327 24.628C27.5047 24.956 27.0687 25.12 26.5247 25.12H23.8847ZM26.0447 23.8C26.3167 23.8 26.5247 23.728 26.6687 23.584C26.8127 23.44 26.8847 23.232 26.8847 22.96V18.64C26.8847 18.368 26.8127 18.16 26.6687 18.016C26.5247 17.872 26.3167 17.8 26.0447 17.8H24.3647C24.0927 17.8 23.8847 17.872 23.7407 18.016C23.5967 18.16 23.5247 18.368 23.5247 18.64V22.96C23.5247 23.232 23.5967 23.44 23.7407 23.584C23.8847 23.728 24.0927 23.8 24.3647 23.8H26.0447ZM30.0694 25V16.6H34.2694C34.8134 16.6 35.2494 16.764 35.5774 17.092C35.9054 17.42 36.0694 17.856 36.0694 18.4V20.56C36.0694 21.096 35.9054 21.532 35.5774 21.868C35.2494 22.196 34.8134 22.36 34.2694 22.36H31.5094V25H30.0694ZM33.7894 21.04C34.0614 21.04 34.2694 20.968 34.4134 20.824C34.5574 20.68 34.6294 20.472 34.6294 20.2V18.76C34.6294 18.488 34.5574 18.28 34.4134 18.136C34.2694 17.992 34.0614 17.92 33.7894 17.92H31.5094V21.04H33.7894ZM39.068 25H37.628V16.6H39.068V21.1L38.924 22.54H38.984L42.428 16.6H43.868V25H42.428V20.5L42.572 19.06H42.512L39.068 25ZM49.9842 25V22.12H47.3442C46.8082 22.12 46.3722 21.956 46.0362 21.628C45.7082 21.292 45.5442 20.856 45.5442 20.32V16.6H46.9842V19.96C46.9842 20.232 47.0562 20.44 47.2002 20.584C47.3442 20.728 47.5522 20.8 47.8242 20.8H49.9842V16.6H51.4242V25H49.9842ZM58.6228 25H53.3428V16.6H58.6228V17.5L58.2028 17.92H54.7828V20.08H57.4828V21.4H54.7828V23.68H58.6228V25ZM61.5019 25C60.9659 25 60.5299 24.836 60.1939 24.508C59.8659 24.172 59.7019 23.736 59.7019 23.2V18.4C59.7019 17.856 59.8659 17.42 60.1939 17.092C60.5299 16.764 60.9659 16.6 61.5019 16.6H65.2819V17.512L64.8619 17.92H61.9819C61.7099 17.92 61.5019 17.992 61.3579 18.136C61.2139 18.28 61.1419 18.488 61.1419 18.76V22.84C61.1419 23.112 61.2139 23.32 61.3579 23.464C61.5019 23.608 61.7099 23.68 61.9819 23.68H65.2819V25H61.5019ZM68.107 25H66.667V16.6H68.107V20.08H69.667L71.527 16.6H72.787V17.32L70.927 20.62L72.907 24.28V25H71.587L69.667 21.4H68.107V25ZM75.967 16.6H77.767L80.287 24.34V25H78.907L78.391 23.2H75.343L74.827 25H73.447V24.34L75.967 16.6ZM76.819 18.1L75.727 21.88H78.007L76.915 18.1H76.819ZM81.0713 25V24.28L82.6313 21.7C82.2953 21.66 81.9913 21.5 81.7193 21.22C81.4473 20.94 81.3113 20.56 81.3113 20.08V18.4C81.3113 17.856 81.4753 17.42 81.8033 17.092C82.1393 16.764 82.5753 16.6 83.1113 16.6H87.1913V25H85.7513V21.88H84.0713L82.4513 25H81.0713ZM85.7513 20.56V17.92H83.5913C83.3193 17.92 83.1113 17.992 82.9673 18.136C82.8233 18.28 82.7513 18.488 82.7513 18.76V19.72C82.7513 19.992 82.8233 20.2 82.9673 20.344C83.1113 20.488 83.3193 20.56 83.5913 20.56H85.7513ZM2.58 38C2.044 38 1.608 37.836 1.272 37.508C0.944 37.172 0.78 36.736 0.78 36.2V31.4C0.78 30.856 0.944 30.42 1.272 30.092C1.608 29.764 2.044 29.6 2.58 29.6H6.36V30.512L5.94 30.92H3.06C2.788 30.92 2.58 30.992 2.436 31.136C2.292 31.28 2.22 31.488 2.22 31.76V35.84C2.22 36.112 2.292 36.32 2.436 36.464C2.58 36.608 2.788 36.68 3.06 36.68H6.36V38H2.58ZM10.7452 38H9.30516V30.92H6.90516V29.6H13.1452V30.5L12.7252 30.92H10.7452V38ZM15.5452 29.6H17.3452L19.8652 37.34V38H18.4852L17.9692 36.2H14.9212L14.4052 38H13.0252V37.34L15.5452 29.6ZM16.3972 31.1L15.3052 34.88H17.5852L16.4932 31.1H16.3972ZM23.5889 38H22.1489V30.92H19.7489V29.6H25.9889V30.5L25.5689 30.92H23.5889V38ZM28.5094 38H27.0694V29.6H28.5094V34.1L28.3654 35.54H28.4254L31.8694 29.6H33.3094V38H31.8694V33.5L32.0134 32.06H31.9534L28.5094 38ZM36.8456 38C36.3096 38 35.8736 37.836 35.5376 37.508C35.2096 37.172 35.0456 36.736 35.0456 36.2V31.4C35.0456 30.856 35.2096 30.42 35.5376 30.092C35.8736 29.764 36.3096 29.6 36.8456 29.6H40.6256V30.512L40.2056 30.92H37.3256C37.0536 30.92 36.8456 30.992 36.7016 31.136C36.5576 31.28 36.4856 31.488 36.4856 31.76V35.84C36.4856 36.112 36.5576 36.32 36.7016 36.464C36.8456 36.608 37.0536 36.68 37.3256 36.68H40.6256V38H36.8456ZM45.0108 38H43.5708V30.92H41.1708V29.6H47.4108V30.5L46.9908 30.92H45.0108V38ZM49.9313 38H48.4913V29.6H49.9313V34.1L49.7873 35.54H49.8473L53.2913 29.6H54.7313V38H53.2913V33.5L53.4353 32.06H53.3753L49.9313 38ZM58.0875 38H56.6475V29.6H58.0875V33.08H59.6475L61.5075 29.6H62.7675V30.32L60.9075 33.62L62.8875 37.28V38H61.5675L59.6475 34.4H58.0875V38ZM65.9475 29.6H67.7475L70.2675 37.34V38H68.8875L68.3715 36.2H65.3235L64.8075 38H63.4275V37.34L65.9475 29.6ZM66.7995 31.1L65.7075 34.88H67.9875L66.8955 31.1H66.7995Z" fill="white"/>
</svg>
