<svg width="74" height="14" viewBox="0 0 74 14" fill="none" xmlns="http://www.w3.org/2000/svg">
<path d="M6.36523 6.91211H7.36328C7.36328 7.6276 7.1582 8.16536 6.74805 8.52539C6.34245 8.88086 5.79102 9.05859 5.09375 9.05859C4.61068 9.05859 4.19141 8.94694 3.83594 8.72363C3.48503 8.50033 3.21159 8.19043 3.01562 7.79395C2.82422 7.39746 2.72852 6.93717 2.72852 6.41309V5.62695C2.72852 5.10286 2.82422 4.64258 3.01562 4.24609C3.21159 3.84961 3.48503 3.53971 3.83594 3.31641C4.19141 3.0931 4.61068 2.98145 5.09375 2.98145C5.79102 2.98145 6.34473 3.15918 6.75488 3.51465C7.16504 3.87012 7.37012 4.4056 7.37012 5.12109H6.37207C6.37207 4.66992 6.2627 4.34635 6.04395 4.15039C5.82975 3.95443 5.51302 3.85645 5.09375 3.85645C4.79297 3.85645 4.54004 3.93164 4.33496 4.08203C4.12988 4.23242 3.97493 4.44206 3.87012 4.71094C3.7653 4.97526 3.71289 5.27832 3.71289 5.62012V6.41309C3.71289 6.75944 3.7653 7.06706 3.87012 7.33594C3.97493 7.60026 4.12988 7.80762 4.33496 7.95801C4.54004 8.1084 4.79297 8.18359 5.09375 8.18359C5.51302 8.18359 5.82975 8.08561 6.04395 7.88965C6.25814 7.69368 6.36523 7.36784 6.36523 6.91211ZM1.12207 6.0166C1.12207 6.62272 1.22689 7.18783 1.43652 7.71191C1.64616 8.236 1.93783 8.69401 2.31152 9.08594C2.68522 9.47786 3.11816 9.7832 3.61035 10.002C4.10254 10.2207 4.62891 10.3301 5.18945 10.3301C5.75 10.3301 6.27409 10.2207 6.76172 10.002C7.25391 9.7832 7.68457 9.47786 8.05371 9.08594C8.42741 8.69401 8.71908 8.236 8.92871 7.71191C9.13835 7.18783 9.24316 6.62272 9.24316 6.0166C9.24316 5.40592 9.13835 4.84082 8.92871 4.32129C8.71908 3.80176 8.42741 3.34831 8.05371 2.96094C7.68457 2.56901 7.25391 2.26595 6.76172 2.05176C6.27409 1.83301 5.75 1.72363 5.18945 1.72363C4.62891 1.72363 4.10254 1.83301 3.61035 2.05176C3.11816 2.26595 2.68522 2.56901 2.31152 2.96094C1.93783 3.34831 1.64616 3.80176 1.43652 4.32129C1.22689 4.84082 1.12207 5.40592 1.12207 6.0166ZM0.335938 6.0166C0.335938 5.29199 0.461263 4.61979 0.711914 4C0.962565 3.38021 1.3112 2.84017 1.75781 2.37988C2.20443 1.91504 2.7194 1.55501 3.30273 1.2998C3.89062 1.04004 4.51953 0.910156 5.18945 0.910156C5.85938 0.910156 6.486 1.04004 7.06934 1.2998C7.65723 1.55501 8.1722 1.91504 8.61426 2.37988C9.06087 2.84017 9.40951 3.38021 9.66016 4C9.91081 4.61979 10.0361 5.29199 10.0361 6.0166C10.0361 6.74121 9.91081 7.41341 9.66016 8.0332C9.40951 8.65299 9.06087 9.19759 8.61426 9.66699C8.1722 10.1318 7.65723 10.4941 7.06934 10.7539C6.486 11.0137 5.85938 11.1436 5.18945 11.1436C4.51953 11.1436 3.89062 11.0137 3.30273 10.7539C2.7194 10.4941 2.20443 10.1318 1.75781 9.66699C1.3112 9.19759 0.962565 8.65299 0.711914 8.0332C0.461263 7.41341 0.335938 6.74121 0.335938 6.0166ZM21.3496 7.83496H22.6621C22.5938 8.46387 22.4137 9.02669 22.1221 9.52344C21.8304 10.0202 21.418 10.4144 20.8848 10.7061C20.3516 10.9932 19.6862 11.1367 18.8887 11.1367C18.3053 11.1367 17.7744 11.0273 17.2959 10.8086C16.8219 10.5898 16.4141 10.2799 16.0723 9.87891C15.7305 9.47331 15.4661 8.98796 15.2793 8.42285C15.097 7.85319 15.0059 7.21973 15.0059 6.52246V5.53125C15.0059 4.83398 15.097 4.2028 15.2793 3.6377C15.4661 3.06803 15.7327 2.5804 16.0791 2.1748C16.43 1.76921 16.8516 1.45703 17.3438 1.23828C17.8359 1.01953 18.3896 0.910156 19.0049 0.910156C19.7568 0.910156 20.3926 1.05143 20.9121 1.33398C21.4316 1.61654 21.835 2.00846 22.1221 2.50977C22.4137 3.00651 22.5938 3.58301 22.6621 4.23926H21.3496C21.2858 3.77441 21.1673 3.37565 20.9941 3.04297C20.821 2.70573 20.5749 2.44596 20.2559 2.26367C19.9368 2.08138 19.5199 1.99023 19.0049 1.99023C18.5628 1.99023 18.1732 2.07454 17.8359 2.24316C17.5033 2.41178 17.223 2.65104 16.9951 2.96094C16.7718 3.27083 16.6032 3.64225 16.4893 4.0752C16.3753 4.50814 16.3184 4.98893 16.3184 5.51758V6.52246C16.3184 7.01009 16.3685 7.4681 16.4688 7.89648C16.5736 8.32487 16.7308 8.70085 16.9404 9.02441C17.1501 9.34798 17.4167 9.60319 17.7402 9.79004C18.0638 9.97233 18.4466 10.0635 18.8887 10.0635C19.4492 10.0635 19.8958 9.97461 20.2285 9.79688C20.5612 9.61914 20.8118 9.36393 20.9805 9.03125C21.1536 8.69857 21.2767 8.2998 21.3496 7.83496ZM23.9336 7.38379V7.22656C23.9336 6.69336 24.0111 6.19889 24.166 5.74316C24.321 5.28288 24.5443 4.88411 24.8359 4.54688C25.1276 4.20508 25.4808 3.94076 25.8955 3.75391C26.3102 3.5625 26.7751 3.4668 27.29 3.4668C27.8096 3.4668 28.2767 3.5625 28.6914 3.75391C29.1107 3.94076 29.4661 4.20508 29.7578 4.54688C30.054 4.88411 30.2796 5.28288 30.4346 5.74316C30.5895 6.19889 30.667 6.69336 30.667 7.22656V7.38379C30.667 7.91699 30.5895 8.41146 30.4346 8.86719C30.2796 9.32292 30.054 9.72168 29.7578 10.0635C29.4661 10.4007 29.113 10.665 28.6982 10.8564C28.2881 11.0433 27.8232 11.1367 27.3037 11.1367C26.7842 11.1367 26.3171 11.0433 25.9023 10.8564C25.4876 10.665 25.1322 10.4007 24.8359 10.0635C24.5443 9.72168 24.321 9.32292 24.166 8.86719C24.0111 8.41146 23.9336 7.91699 23.9336 7.38379ZM25.1982 7.22656V7.38379C25.1982 7.75293 25.2415 8.10156 25.3281 8.42969C25.4147 8.75326 25.5446 9.04036 25.7178 9.29102C25.8955 9.54167 26.1165 9.73991 26.3809 9.88574C26.6452 10.027 26.9528 10.0977 27.3037 10.0977C27.6501 10.0977 27.9531 10.027 28.2129 9.88574C28.4772 9.73991 28.696 9.54167 28.8691 9.29102C29.0423 9.04036 29.1722 8.75326 29.2588 8.42969C29.3499 8.10156 29.3955 7.75293 29.3955 7.38379V7.22656C29.3955 6.86198 29.3499 6.5179 29.2588 6.19434C29.1722 5.86621 29.04 5.57682 28.8623 5.32617C28.6891 5.07096 28.4704 4.87044 28.2061 4.72461C27.9463 4.57878 27.641 4.50586 27.29 4.50586C26.9437 4.50586 26.6383 4.57878 26.374 4.72461C26.1143 4.87044 25.8955 5.07096 25.7178 5.32617C25.5446 5.57682 25.4147 5.86621 25.3281 6.19434C25.2415 6.5179 25.1982 6.86198 25.1982 7.22656ZM33.5176 5.02539V13.8438H32.2461V3.60352H33.4082L33.5176 5.02539ZM38.501 7.24023V7.38379C38.501 7.92155 38.4372 8.42057 38.3096 8.88086C38.182 9.33659 37.9951 9.73307 37.749 10.0703C37.5075 10.4076 37.209 10.6696 36.8535 10.8564C36.498 11.0433 36.0902 11.1367 35.6299 11.1367C35.1605 11.1367 34.7458 11.0592 34.3857 10.9043C34.0257 10.7493 33.7204 10.5238 33.4697 10.2275C33.2191 9.93132 33.0186 9.57585 32.8682 9.16113C32.7223 8.74642 32.6221 8.2793 32.5674 7.75977V6.99414C32.6221 6.44727 32.7246 5.95736 32.875 5.52441C33.0254 5.09147 33.2236 4.72233 33.4697 4.41699C33.7204 4.1071 34.0234 3.8724 34.3789 3.71289C34.7344 3.54883 35.1445 3.4668 35.6094 3.4668C36.0742 3.4668 36.4867 3.55794 36.8467 3.74023C37.2067 3.91797 37.5098 4.17318 37.7559 4.50586C38.002 4.83854 38.1865 5.2373 38.3096 5.70215C38.4372 6.16243 38.501 6.67513 38.501 7.24023ZM37.2295 7.38379V7.24023C37.2295 6.87109 37.1908 6.52474 37.1133 6.20117C37.0358 5.87305 36.915 5.58594 36.751 5.33984C36.5915 5.08919 36.3864 4.89323 36.1357 4.75195C35.8851 4.60612 35.5866 4.5332 35.2402 4.5332C34.9212 4.5332 34.6432 4.58789 34.4062 4.69727C34.1738 4.80664 33.9756 4.95475 33.8115 5.1416C33.6475 5.32389 33.513 5.53353 33.4082 5.77051C33.3079 6.00293 33.2327 6.24447 33.1826 6.49512V8.26562C33.2738 8.58464 33.4014 8.88542 33.5654 9.16797C33.7295 9.44596 33.9482 9.67155 34.2217 9.84473C34.4951 10.0133 34.8392 10.0977 35.2539 10.0977C35.5957 10.0977 35.8896 10.027 36.1357 9.88574C36.3864 9.73991 36.5915 9.54167 36.751 9.29102C36.915 9.04036 37.0358 8.75326 37.1133 8.42969C37.1908 8.10156 37.2295 7.75293 37.2295 7.38379ZM42.1104 10.2344L44.168 3.60352H45.5215L42.5547 12.1416C42.4863 12.3239 42.3952 12.5199 42.2812 12.7295C42.1719 12.9437 42.0306 13.1465 41.8574 13.3379C41.6842 13.5293 41.4746 13.6842 41.2285 13.8027C40.987 13.9258 40.6976 13.9873 40.3604 13.9873C40.2601 13.9873 40.1325 13.9736 39.9775 13.9463C39.8226 13.9189 39.7132 13.8962 39.6494 13.8779L39.6426 12.8525C39.679 12.8571 39.736 12.8617 39.8135 12.8662C39.8955 12.8753 39.9525 12.8799 39.9844 12.8799C40.2715 12.8799 40.5153 12.8411 40.7158 12.7637C40.9163 12.6908 41.085 12.5654 41.2217 12.3877C41.363 12.2145 41.4837 11.9753 41.584 11.6699L42.1104 10.2344ZM40.5996 3.60352L42.5205 9.3457L42.8486 10.6787L41.9395 11.1436L39.2188 3.60352H40.5996ZM47.9277 4.76562V11H46.6631V3.60352H47.8936L47.9277 4.76562ZM50.2383 3.5625L50.2314 4.73828C50.1266 4.71549 50.0264 4.70182 49.9307 4.69727C49.8395 4.68815 49.7347 4.68359 49.6162 4.68359C49.3245 4.68359 49.0671 4.72917 48.8438 4.82031C48.6204 4.91146 48.4313 5.03906 48.2764 5.20312C48.1214 5.36719 47.9984 5.56315 47.9072 5.79102C47.8206 6.01432 47.7637 6.26042 47.7363 6.5293L47.3809 6.73438C47.3809 6.28776 47.4242 5.86849 47.5107 5.47656C47.6019 5.08464 47.7409 4.73828 47.9277 4.4375C48.1146 4.13216 48.3516 3.89518 48.6387 3.72656C48.9303 3.55339 49.2767 3.4668 49.6777 3.4668C49.7689 3.4668 49.8737 3.47819 49.9922 3.50098C50.1107 3.51921 50.1927 3.53971 50.2383 3.5625ZM52.7812 3.60352V11H51.5098V3.60352H52.7812ZM51.4141 1.6416C51.4141 1.43652 51.4756 1.26335 51.5986 1.12207C51.7262 0.980794 51.9131 0.910156 52.1592 0.910156C52.4007 0.910156 52.5853 0.980794 52.7129 1.12207C52.8451 1.26335 52.9111 1.43652 52.9111 1.6416C52.9111 1.83757 52.8451 2.00618 52.7129 2.14746C52.5853 2.28418 52.4007 2.35254 52.1592 2.35254C51.9131 2.35254 51.7262 2.28418 51.5986 2.14746C51.4756 2.00618 51.4141 1.83757 51.4141 1.6416ZM59.6035 3.60352H60.752V10.8428C60.752 11.4945 60.6198 12.0505 60.3555 12.5107C60.0911 12.971 59.722 13.3197 59.248 13.5566C58.7786 13.7982 58.2363 13.9189 57.6211 13.9189C57.3659 13.9189 57.0651 13.8779 56.7188 13.7959C56.377 13.7184 56.0397 13.584 55.707 13.3926C55.3789 13.2057 55.1032 12.9528 54.8799 12.6338L55.543 11.8818C55.8529 12.2555 56.1764 12.5153 56.5137 12.6611C56.8555 12.807 57.1927 12.8799 57.5254 12.8799C57.9264 12.8799 58.2728 12.8047 58.5645 12.6543C58.8561 12.5039 59.0817 12.2806 59.2412 11.9844C59.4053 11.6927 59.4873 11.3327 59.4873 10.9043V5.23047L59.6035 3.60352ZM54.5107 7.38379V7.24023C54.5107 6.67513 54.5768 6.16243 54.709 5.70215C54.8457 5.2373 55.0394 4.83854 55.29 4.50586C55.5452 4.17318 55.8529 3.91797 56.2129 3.74023C56.5729 3.55794 56.9785 3.4668 57.4297 3.4668C57.8945 3.4668 58.3001 3.54883 58.6465 3.71289C58.9974 3.8724 59.2936 4.1071 59.5352 4.41699C59.7812 4.72233 59.9749 5.09147 60.1162 5.52441C60.2575 5.95736 60.3555 6.44727 60.4102 6.99414V7.62305C60.36 8.16536 60.262 8.65299 60.1162 9.08594C59.9749 9.51888 59.7812 9.88802 59.5352 10.1934C59.2936 10.4987 58.9974 10.7334 58.6465 10.8975C58.2956 11.057 57.8854 11.1367 57.416 11.1367C56.974 11.1367 56.5729 11.0433 56.2129 10.8564C55.8574 10.6696 55.5521 10.4076 55.2969 10.0703C55.0417 9.73307 54.8457 9.33659 54.709 8.88086C54.5768 8.42057 54.5107 7.92155 54.5107 7.38379ZM55.7754 7.24023V7.38379C55.7754 7.75293 55.8118 8.09928 55.8848 8.42285C55.9622 8.74642 56.0785 9.03125 56.2334 9.27734C56.3929 9.52344 56.5957 9.71712 56.8418 9.8584C57.0879 9.99512 57.3818 10.0635 57.7236 10.0635C58.1429 10.0635 58.4893 9.97461 58.7627 9.79688C59.0361 9.61914 59.2526 9.38444 59.4121 9.09277C59.5762 8.80111 59.7038 8.48438 59.7949 8.14258V6.49512C59.7448 6.24447 59.6673 6.00293 59.5625 5.77051C59.4622 5.53353 59.3301 5.32389 59.166 5.1416C59.0065 4.95475 58.8083 4.80664 58.5713 4.69727C58.3343 4.58789 58.0563 4.5332 57.7373 4.5332C57.391 4.5332 57.0924 4.60612 56.8418 4.75195C56.5957 4.89323 56.3929 5.08919 56.2334 5.33984C56.0785 5.58594 55.9622 5.87305 55.8848 6.20117C55.8118 6.52474 55.7754 6.87109 55.7754 7.24023ZM63.9375 0.5V11H62.6729V0.5H63.9375ZM63.6367 7.02148L63.1104 7.00098C63.1149 6.49512 63.1901 6.02799 63.3359 5.59961C63.4818 5.16667 63.6868 4.79069 63.9512 4.47168C64.2155 4.15267 64.5299 3.90658 64.8945 3.7334C65.2637 3.55566 65.6715 3.4668 66.1182 3.4668C66.4827 3.4668 66.8109 3.51693 67.1025 3.61719C67.3942 3.71289 67.6426 3.86784 67.8477 4.08203C68.0573 4.29622 68.2168 4.57422 68.3262 4.91602C68.4355 5.25326 68.4902 5.66569 68.4902 6.15332V11H67.2188V6.13965C67.2188 5.75228 67.1618 5.44238 67.0479 5.20996C66.9339 4.97298 66.7676 4.80208 66.5488 4.69727C66.3301 4.58789 66.0612 4.5332 65.7422 4.5332C65.4277 4.5332 65.1406 4.59928 64.8809 4.73145C64.6257 4.86361 64.4046 5.0459 64.2178 5.27832C64.0355 5.51074 63.8919 5.77734 63.7871 6.07812C63.6868 6.37435 63.6367 6.6888 63.6367 7.02148ZM73.4805 3.60352V4.57422H69.4814V3.60352H73.4805ZM70.835 1.80566H72.0996V9.16797C72.0996 9.41862 72.1383 9.60775 72.2158 9.73535C72.2933 9.86296 72.3936 9.94727 72.5166 9.98828C72.6396 10.0293 72.7718 10.0498 72.9131 10.0498C73.0179 10.0498 73.1273 10.0407 73.2412 10.0225C73.3597 9.99967 73.4486 9.98145 73.5078 9.96777L73.5146 11C73.4144 11.0319 73.2822 11.0615 73.1182 11.0889C72.9587 11.1208 72.765 11.1367 72.5371 11.1367C72.2272 11.1367 71.9424 11.0752 71.6826 10.9521C71.4229 10.8291 71.2155 10.624 71.0605 10.3369C70.9102 10.0452 70.835 9.65332 70.835 9.16113V1.80566Z" fill="#666666"/>
</svg>
