<svg width="14" height="14" viewBox="0 0 14 14" fill="currentColor" xmlns="http://www.w3.org/2000/svg">
<path d="M10.5194 9.69541L13.0176 12.1936L12.1927 13.0186L9.69445 10.5204C8.79618 11.239 7.65697 11.669 6.41797 11.669C3.51997 11.669 1.16797 9.31697 1.16797 6.41895C1.16797 3.52095 3.51997 1.16895 6.41797 1.16895C9.31601 1.16895 11.668 3.52095 11.668 6.41895C11.668 7.65795 11.238 8.79713 10.5194 9.69541ZM9.34909 9.26255C10.0624 8.52747 10.5013 7.52472 10.5013 6.41895C10.5013 4.16291 8.67402 2.33562 6.41797 2.33562C4.16193 2.33562 2.33464 4.16291 2.33464 6.41895C2.33464 8.67499 4.16193 10.5022 6.41797 10.5022C7.52374 10.5022 8.52648 10.0633 9.26159 9.35005L9.34909 9.26255Z" fill="white" fill-opacity="0.86"/>
</svg>
