<svg width="25" height="24" viewBox="0 0 25 24" fill="none" xmlns="http://www.w3.org/2000/svg">
<path d="M2.13006 10.7491L2.99604 15.1594L3.34243 18.3004C3.77542 18.6016 4.38161 18.8598 5.13934 19.0964V16.3857C5.13934 15.5682 5.81047 14.9013 6.63315 14.9013C7.45584 14.9013 8.12697 15.5682 8.12697 16.3857V19.7203C9.0146 19.8494 9.98882 19.9355 11.0064 19.9785V16.3857C11.0064 15.5682 11.6775 14.9013 12.5002 14.9013C13.3228 14.9013 13.994 15.5682 13.994 16.3857V20C15.0115 19.957 15.9857 19.8924 16.8734 19.7634V16.3857C16.8734 15.5682 17.5445 14.9013 18.3672 14.9013C19.1899 14.9013 19.861 15.5682 19.861 16.3857V19.1825C20.5538 18.9889 21.16 18.7522 21.6146 18.5156L22.0476 14.9228L22.8703 10.7491C21.5713 11.5882 17.4146 12.5348 12.5002 12.5348C7.58573 12.5348 3.42903 11.5882 2.13006 10.7491Z" fill="#797979"/>
<path d="M23 9.43104C23 8.91472 21.9608 8.31233 20.7485 7.92509C18.9082 7.38725 15.7961 7.02151 12.6353 7H12.4134C11.2227 7 10.0753 7.04303 9.01443 7.12908C8.86289 7.1506 8.73299 7.1506 8.58144 7.17211C7.06598 7.3227 5.70206 7.53784 4.64124 7.81752L4.38144 7.88206C3.10412 8.29082 2 8.8932 2 9.43104C2 10.2055 3.55876 10.894 5.98351 11.3458C4.77113 11.0446 4.0567 10.6358 4.0567 10.2055C4.0567 9.21591 7.84536 8.4199 12.5 8.4199C17.1546 8.4199 20.9433 9.21591 20.9433 10.2055C20.9433 10.5498 20.4454 10.894 19.5794 11.1736C19.5361 11.2167 19.5144 11.2382 19.4711 11.2597C21.6361 10.8079 23 10.1625 23 9.43104Z" fill="#797979"/>
</svg>
